<mxfile host="65bd71144e" modified="2021-01-19T10:42:21.391Z" agent="5.0 (Macintosh; Intel Mac OS X 11_0_0) AppleWebKit/537.36 (KHTML, like Gecko) Code/1.52.1 Chrome/83.0.4103.122 Electron/9.3.5 Safari/537.36" version="13.10.0" etag="x1NHRG3tDmKfZk4ejEwg" type="embed">
    <diagram id="l4APdtuKcMLwrOG1OQsJ" name="Page-1">
        <mxGraphModel dx="8200" dy="2424" grid="1" gridSize="10" guides="1" tooltips="1" connect="1" arrows="1" fold="1" page="1" pageScale="1" pageWidth="1600" pageHeight="900" background="#ffffff" math="0" shadow="0">
            <root>
                <mxCell id="0"/>
                <mxCell id="1" parent="0"/>
                <mxCell id="70" style="edgeStyle=orthogonalEdgeStyle;shape=flexArrow;rounded=0;orthogonalLoop=1;jettySize=auto;html=1;fillColor=#76608a;strokeColor=#432D57;" edge="1" parent="1" source="57">
                    <mxGeometry relative="1" as="geometry">
                        <mxPoint x="-230" y="860" as="targetPoint"/>
                    </mxGeometry>
                </mxCell>
                <mxCell id="72" style="edgeStyle=orthogonalEdgeStyle;shape=flexArrow;rounded=0;orthogonalLoop=1;jettySize=auto;html=1;strokeColor=#1A1A1A;strokeWidth=4;" edge="1" parent="1" source="57">
                    <mxGeometry relative="1" as="geometry">
                        <mxPoint x="320" y="520" as="targetPoint"/>
                    </mxGeometry>
                </mxCell>
                <mxCell id="73" style="edgeStyle=orthogonalEdgeStyle;shape=flexArrow;rounded=0;orthogonalLoop=1;jettySize=auto;html=1;strokeColor=#1A1A1A;strokeWidth=4;" edge="1" parent="1" source="57">
                    <mxGeometry relative="1" as="geometry">
                        <mxPoint x="1260" y="520" as="targetPoint"/>
                    </mxGeometry>
                </mxCell>
                <mxCell id="57" value="" style="rounded=0;whiteSpace=wrap;html=1;dashed=1;dashPattern=1 2;fillColor=#fad7ac;strokeWidth=3;strokeColor=#1A1A1A;" vertex="1" parent="1">
                    <mxGeometry x="40" y="810" width="1470" height="100" as="geometry"/>
                </mxCell>
                <mxCell id="60" style="edgeStyle=orthogonalEdgeStyle;rounded=0;orthogonalLoop=1;jettySize=auto;html=1;shape=flexArrow;strokeColor=#432D57;" edge="1" parent="1" source="56">
                    <mxGeometry relative="1" as="geometry">
                        <mxPoint x="1960" y="580" as="targetPoint"/>
                    </mxGeometry>
                </mxCell>
                <mxCell id="63" value="&lt;font style=&quot;font-size: 23px&quot;&gt;Publish Chat Message&lt;/font&gt;" style="edgeLabel;html=1;align=center;verticalAlign=middle;resizable=0;points=[];" vertex="1" connectable="0" parent="60">
                    <mxGeometry x="-0.186" y="-3" relative="1" as="geometry">
                        <mxPoint x="88" y="-23" as="offset"/>
                    </mxGeometry>
                </mxCell>
                <mxCell id="56" value="" style="rounded=0;whiteSpace=wrap;html=1;dashed=1;dashPattern=1 2;fillColor=#d0cee2;strokeWidth=3;strokeColor=#1A1A1A;" vertex="1" parent="1">
                    <mxGeometry x="50" y="400" width="1470" height="100" as="geometry"/>
                </mxCell>
                <mxCell id="98" style="edgeStyle=orthogonalEdgeStyle;rounded=0;jumpSize=5;orthogonalLoop=1;jettySize=auto;html=1;strokeColor=#1A1A1A;strokeWidth=2;fillColor=none;fontSize=23;fontColor=#1A1A1A;" edge="1" parent="1" source="26">
                    <mxGeometry relative="1" as="geometry">
                        <mxPoint x="-780" y="200" as="targetPoint"/>
                    </mxGeometry>
                </mxCell>
                <mxCell id="26" value="" style="rounded=0;whiteSpace=wrap;html=1;dashed=1;strokeWidth=5;fillColor=none;strokeColor=#000000;" vertex="1" parent="1">
                    <mxGeometry x="95" y="-395" width="1340" height="110" as="geometry"/>
                </mxCell>
                <mxCell id="95" style="edgeStyle=orthogonalEdgeStyle;rounded=0;jumpSize=5;orthogonalLoop=1;jettySize=auto;html=1;strokeColor=#1A1A1A;strokeWidth=2;fillColor=none;fontSize=23;fontColor=#1A1A1A;" edge="1" parent="1" source="25">
                    <mxGeometry relative="1" as="geometry">
                        <mxPoint x="-720" y="200" as="targetPoint"/>
                    </mxGeometry>
                </mxCell>
                <mxCell id="25" value="" style="rounded=0;whiteSpace=wrap;html=1;dashed=1;strokeWidth=5;fillColor=none;strokeColor=#000000;" vertex="1" parent="1">
                    <mxGeometry x="90" y="-225" width="1340" height="110" as="geometry"/>
                </mxCell>
                <mxCell id="97" style="edgeStyle=orthogonalEdgeStyle;rounded=0;jumpSize=5;orthogonalLoop=1;jettySize=auto;html=1;exitX=0;exitY=0.75;exitDx=0;exitDy=0;strokeColor=#1A1A1A;strokeWidth=2;fillColor=none;fontSize=23;fontColor=#1A1A1A;" edge="1" parent="1" source="24">
                    <mxGeometry relative="1" as="geometry">
                        <mxPoint x="-680" y="200" as="targetPoint"/>
                    </mxGeometry>
                </mxCell>
                <mxCell id="24" value="" style="rounded=0;whiteSpace=wrap;html=1;dashed=1;strokeWidth=5;fillColor=none;strokeColor=#000000;" vertex="1" parent="1">
                    <mxGeometry x="90" width="1340" height="110" as="geometry"/>
                </mxCell>
                <mxCell id="79" style="edgeStyle=orthogonalEdgeStyle;shape=flexArrow;rounded=0;orthogonalLoop=1;jettySize=auto;html=1;entryX=0.51;entryY=0;entryDx=0;entryDy=0;entryPerimeter=0;strokeColor=#1A1A1A;strokeWidth=3;fillColor=none;fontSize=23;fontColor=#FFFFFF;" edge="1" parent="1" source="2" target="56">
                    <mxGeometry relative="1" as="geometry"/>
                </mxCell>
                <mxCell id="2" value="&lt;font style=&quot;font-size: 30px&quot; color=&quot;#1a1a1a&quot;&gt;Load Balancer&lt;/font&gt;" style="rounded=0;whiteSpace=wrap;html=1;gradientColor=#ffd966;fillColor=#fff2cc;strokeColor=#d6b656;" vertex="1" parent="1">
                    <mxGeometry x="95" y="240" width="1410" height="60" as="geometry"/>
                </mxCell>
                <mxCell id="15" style="edgeStyle=orthogonalEdgeStyle;rounded=0;orthogonalLoop=1;jettySize=auto;html=1;strokeWidth=7;strokeColor=#1A1A1A;" edge="1" parent="1" source="4">
                    <mxGeometry relative="1" as="geometry">
                        <mxPoint x="185" y="210" as="targetPoint"/>
                    </mxGeometry>
                </mxCell>
                <mxCell id="4" value="Actor" style="shape=umlActor;verticalLabelPosition=bottom;verticalAlign=top;html=1;outlineConnect=0;strokeColor=#A50040;fontColor=#ffffff;fillColor=#1A1A1A;" vertex="1" parent="1">
                    <mxGeometry x="170" y="-200" width="30" height="60" as="geometry"/>
                </mxCell>
                <mxCell id="20" style="edgeStyle=orthogonalEdgeStyle;rounded=0;orthogonalLoop=1;jettySize=auto;html=1;strokeWidth=7;strokeColor=#1A1A1A;" edge="1" parent="1" source="5">
                    <mxGeometry relative="1" as="geometry">
                        <mxPoint x="1345" y="230" as="targetPoint"/>
                    </mxGeometry>
                </mxCell>
                <mxCell id="5" value="Actor" style="shape=umlActor;verticalLabelPosition=bottom;verticalAlign=top;html=1;outlineConnect=0;strokeColor=#A50040;fontColor=#ffffff;fillColor=#1A1A1A;" vertex="1" parent="1">
                    <mxGeometry x="1330" y="-200" width="30" height="60" as="geometry"/>
                </mxCell>
                <mxCell id="21" style="edgeStyle=orthogonalEdgeStyle;rounded=0;orthogonalLoop=1;jettySize=auto;html=1;strokeWidth=7;strokeColor=#1A1A1A;" edge="1" parent="1" source="6">
                    <mxGeometry relative="1" as="geometry">
                        <mxPoint x="935.0000000000005" y="220" as="targetPoint"/>
                    </mxGeometry>
                </mxCell>
                <mxCell id="6" value="Actor" style="shape=umlActor;verticalLabelPosition=bottom;verticalAlign=top;html=1;outlineConnect=0;strokeColor=#A50040;fontColor=#ffffff;fillColor=#1A1A1A;" vertex="1" parent="1">
                    <mxGeometry x="920" y="-200" width="30" height="60" as="geometry"/>
                </mxCell>
                <mxCell id="17" style="edgeStyle=orthogonalEdgeStyle;rounded=0;orthogonalLoop=1;jettySize=auto;html=1;strokeWidth=7;strokeColor=#1A1A1A;" edge="1" parent="1" source="7">
                    <mxGeometry relative="1" as="geometry">
                        <mxPoint x="335" y="210" as="targetPoint"/>
                    </mxGeometry>
                </mxCell>
                <mxCell id="7" value="Actor" style="shape=umlActor;verticalLabelPosition=bottom;verticalAlign=top;html=1;outlineConnect=0;strokeColor=#A50040;fontColor=#ffffff;fillColor=#1A1A1A;" vertex="1" parent="1">
                    <mxGeometry x="320" y="10" width="30" height="60" as="geometry"/>
                </mxCell>
                <mxCell id="18" style="edgeStyle=orthogonalEdgeStyle;rounded=0;orthogonalLoop=1;jettySize=auto;html=1;strokeWidth=7;strokeColor=#1A1A1A;" edge="1" parent="1" source="8">
                    <mxGeometry relative="1" as="geometry">
                        <mxPoint x="675" y="220" as="targetPoint"/>
                    </mxGeometry>
                </mxCell>
                <mxCell id="8" value="Actor" style="shape=umlActor;verticalLabelPosition=bottom;verticalAlign=top;html=1;outlineConnect=0;strokeColor=#A50040;fontColor=#ffffff;fillColor=#1A1A1A;" vertex="1" parent="1">
                    <mxGeometry x="660" y="10" width="30" height="60" as="geometry"/>
                </mxCell>
                <mxCell id="19" style="edgeStyle=orthogonalEdgeStyle;rounded=0;orthogonalLoop=1;jettySize=auto;html=1;strokeWidth=7;strokeColor=#1A1A1A;" edge="1" parent="1" source="9">
                    <mxGeometry relative="1" as="geometry">
                        <mxPoint x="1235" y="220" as="targetPoint"/>
                    </mxGeometry>
                </mxCell>
                <mxCell id="9" value="Actor" style="shape=umlActor;verticalLabelPosition=bottom;verticalAlign=top;html=1;outlineConnect=0;strokeColor=#A50040;fontColor=#ffffff;fillColor=#1A1A1A;" vertex="1" parent="1">
                    <mxGeometry x="1220" y="10" width="30" height="60" as="geometry"/>
                </mxCell>
                <mxCell id="16" style="edgeStyle=orthogonalEdgeStyle;rounded=0;orthogonalLoop=1;jettySize=auto;html=1;strokeWidth=7;strokeColor=#1A1A1A;" edge="1" parent="1" source="10">
                    <mxGeometry relative="1" as="geometry">
                        <mxPoint x="385" y="190" as="targetPoint"/>
                    </mxGeometry>
                </mxCell>
                <mxCell id="10" value="Actor" style="shape=umlActor;verticalLabelPosition=bottom;verticalAlign=top;html=1;outlineConnect=0;strokeColor=#A50040;fontColor=#ffffff;fillColor=#1A1A1A;" vertex="1" parent="1">
                    <mxGeometry x="370" y="-370" width="30" height="60" as="geometry"/>
                </mxCell>
                <mxCell id="22" style="edgeStyle=orthogonalEdgeStyle;rounded=0;orthogonalLoop=1;jettySize=auto;html=1;strokeWidth=7;strokeColor=#1A1A1A;" edge="1" parent="1" source="11">
                    <mxGeometry relative="1" as="geometry">
                        <mxPoint x="1155.0000000000005" y="230" as="targetPoint"/>
                    </mxGeometry>
                </mxCell>
                <mxCell id="11" value="Actor" style="shape=umlActor;verticalLabelPosition=bottom;verticalAlign=top;html=1;outlineConnect=0;strokeColor=#A50040;fontColor=#ffffff;fillColor=#1A1A1A;" vertex="1" parent="1">
                    <mxGeometry x="1140" y="-370" width="30" height="60" as="geometry"/>
                </mxCell>
                <mxCell id="12" value="&lt;font style=&quot;font-size: 23px ; line-height: 120%&quot;&gt;Team I&lt;/font&gt;" style="text;html=1;align=center;verticalAlign=middle;resizable=0;points=[];autosize=1;labelBackgroundColor=none;gradientColor=#97d077;fillColor=#d5e8d4;strokeColor=#82b366;fontColor=#1A1A1A;" vertex="1" parent="1">
                    <mxGeometry x="1355" y="-435" width="80" height="30" as="geometry"/>
                </mxCell>
                <mxCell id="13" value="&lt;font style=&quot;font-size: 23px ; line-height: 129%&quot;&gt;Team II&lt;/font&gt;" style="text;html=1;align=center;verticalAlign=middle;resizable=0;points=[];autosize=1;labelBackgroundColor=none;gradientColor=#97d077;fillColor=#d5e8d4;strokeColor=#82b366;fontColor=#1A1A1A;" vertex="1" parent="1">
                    <mxGeometry x="1360" y="-260" width="90" height="30" as="geometry"/>
                </mxCell>
                <mxCell id="14" value="&lt;font style=&quot;font-size: 23px ; line-height: 120%&quot;&gt;Team III&lt;/font&gt;" style="text;html=1;align=center;verticalAlign=middle;resizable=0;points=[];autosize=1;labelBackgroundColor=none;gradientColor=#97d077;fillColor=#d5e8d4;strokeColor=#82b366;fontColor=#1A1A1A;" vertex="1" parent="1">
                    <mxGeometry x="1350" y="-40" width="100" height="30" as="geometry"/>
                </mxCell>
                <mxCell id="31" style="edgeStyle=orthogonalEdgeStyle;rounded=0;orthogonalLoop=1;jettySize=auto;html=1;shape=link;labelBackgroundColor=none;fontColor=#1A1A1A;strokeColor=#1A1A1A;" edge="1" parent="1" source="27">
                    <mxGeometry relative="1" as="geometry">
                        <mxPoint x="140" y="310" as="targetPoint"/>
                    </mxGeometry>
                </mxCell>
                <mxCell id="27" value="&lt;font style=&quot;font-size: 20px&quot;&gt;Chat Relay&lt;/font&gt;" style="rounded=1;whiteSpace=wrap;html=1;strokeColor=#000000;fillColor=#E6E6E6;fontColor=#000000;" vertex="1" parent="1">
                    <mxGeometry x="80" y="420" width="120" height="60" as="geometry"/>
                </mxCell>
                <mxCell id="28" value="&lt;font style=&quot;font-size: 20px&quot;&gt;Chat Relay&lt;/font&gt;" style="rounded=1;whiteSpace=wrap;html=1;strokeColor=#000000;fillColor=#E6E6E6;fontColor=#000000;" vertex="1" parent="1">
                    <mxGeometry x="480" y="420" width="120" height="60" as="geometry"/>
                </mxCell>
                <mxCell id="29" value="&lt;font style=&quot;font-size: 20px&quot;&gt;Chat Relay&lt;/font&gt;" style="rounded=1;whiteSpace=wrap;html=1;strokeColor=#000000;fillColor=#E6E6E6;fontColor=#000000;" vertex="1" parent="1">
                    <mxGeometry x="950" y="420" width="120" height="60" as="geometry"/>
                </mxCell>
                <mxCell id="30" value="&lt;font style=&quot;font-size: 20px&quot;&gt;Chat Relay&lt;/font&gt;" style="rounded=1;whiteSpace=wrap;html=1;strokeColor=#000000;fillColor=#E6E6E6;fontColor=#000000;" vertex="1" parent="1">
                    <mxGeometry x="1385" y="420" width="120" height="60" as="geometry"/>
                </mxCell>
                <mxCell id="32" style="edgeStyle=orthogonalEdgeStyle;rounded=0;orthogonalLoop=1;jettySize=auto;html=1;shape=link;labelBackgroundColor=none;fontColor=#1A1A1A;strokeColor=#1A1A1A;" edge="1" parent="1">
                    <mxGeometry relative="1" as="geometry">
                        <mxPoint x="539.5800000000002" y="310" as="targetPoint"/>
                        <mxPoint x="539.5800000000002" y="420" as="sourcePoint"/>
                    </mxGeometry>
                </mxCell>
                <mxCell id="33" style="edgeStyle=orthogonalEdgeStyle;rounded=0;orthogonalLoop=1;jettySize=auto;html=1;shape=link;labelBackgroundColor=none;fontColor=#1A1A1A;strokeColor=#1A1A1A;" edge="1" parent="1">
                    <mxGeometry relative="1" as="geometry">
                        <mxPoint x="1009.5800000000002" y="310" as="targetPoint"/>
                        <mxPoint x="1009.5800000000002" y="420" as="sourcePoint"/>
                    </mxGeometry>
                </mxCell>
                <mxCell id="34" style="edgeStyle=orthogonalEdgeStyle;rounded=0;orthogonalLoop=1;jettySize=auto;html=1;shape=link;labelBackgroundColor=none;fontColor=#1A1A1A;strokeColor=#1A1A1A;" edge="1" parent="1">
                    <mxGeometry relative="1" as="geometry">
                        <mxPoint x="1444.58" y="310" as="targetPoint"/>
                        <mxPoint x="1444.58" y="420" as="sourcePoint"/>
                    </mxGeometry>
                </mxCell>
                <mxCell id="35" value="&lt;font style=&quot;font-size: 21px&quot;&gt;Websocket Connections&lt;/font&gt;" style="text;html=1;align=center;verticalAlign=middle;resizable=0;points=[];autosize=1;" vertex="1" parent="1">
                    <mxGeometry x="1480" y="180" width="240" height="20" as="geometry"/>
                </mxCell>
                <mxCell id="36" value="&lt;font style=&quot;font-size: 21px&quot;&gt;Websocket Connections&lt;/font&gt;" style="text;html=1;align=center;verticalAlign=middle;resizable=0;points=[];autosize=1;" vertex="1" parent="1">
                    <mxGeometry x="1480" y="350" width="240" height="20" as="geometry"/>
                </mxCell>
                <mxCell id="54" style="edgeStyle=orthogonalEdgeStyle;rounded=0;orthogonalLoop=1;jettySize=auto;html=1;entryX=0.5;entryY=1;entryDx=0;entryDy=0;fillColor=#76608a;strokeColor=#432D57;jumpSize=5;strokeWidth=7;" edge="1" parent="1" target="40">
                    <mxGeometry relative="1" as="geometry">
                        <mxPoint x="1920" y="770" as="sourcePoint"/>
                        <Array as="points">
                            <mxPoint x="1920" y="1040"/>
                            <mxPoint x="1270" y="1040"/>
                        </Array>
                    </mxGeometry>
                </mxCell>
                <mxCell id="55" style="edgeStyle=orthogonalEdgeStyle;rounded=0;orthogonalLoop=1;jettySize=auto;html=1;entryX=0.5;entryY=1;entryDx=0;entryDy=0;fillColor=#76608a;strokeColor=#432D57;jumpSize=5;strokeWidth=7;" edge="1" parent="1" target="39">
                    <mxGeometry relative="1" as="geometry">
                        <mxPoint x="1985" y="770" as="sourcePoint"/>
                        <Array as="points">
                            <mxPoint x="1985" y="1150"/>
                            <mxPoint x="335" y="1150"/>
                        </Array>
                    </mxGeometry>
                </mxCell>
                <mxCell id="39" value="&lt;font style=&quot;font-size: 20px&quot;&gt;Controller&lt;/font&gt;" style="rounded=1;whiteSpace=wrap;html=1;strokeColor=#000000;fillColor=#E6E6E6;fontColor=#000000;" vertex="1" parent="1">
                    <mxGeometry x="275" y="830" width="120" height="60" as="geometry"/>
                </mxCell>
                <mxCell id="40" value="&lt;span style=&quot;font-size: 20px&quot;&gt;Controller&lt;/span&gt;" style="rounded=1;whiteSpace=wrap;html=1;strokeColor=#000000;fillColor=#E6E6E6;fontColor=#000000;" vertex="1" parent="1">
                    <mxGeometry x="1210" y="830" width="120" height="60" as="geometry"/>
                </mxCell>
                <mxCell id="66" value="&lt;font style=&quot;font-size: 17px&quot;&gt;gRPC Connection (Pub/Sub)&lt;/font&gt;" style="text;html=1;align=center;verticalAlign=middle;resizable=0;points=[];autosize=1;labelBackgroundColor=#333333;fontColor=#FFFFFF;" vertex="1" parent="1">
                    <mxGeometry x="810" y="710" width="230" height="20" as="geometry"/>
                </mxCell>
                <mxCell id="67" value="&lt;font style=&quot;font-size: 23px;&quot;&gt;Message Consumer&lt;/font&gt;" style="text;html=1;align=center;verticalAlign=middle;resizable=0;points=[];autosize=1;fontSize=23;labelBackgroundColor=#4D4D4D;spacingTop=0;spacing=0;" vertex="1" parent="1">
                    <mxGeometry x="1405" y="1005" width="220" height="30" as="geometry"/>
                </mxCell>
                <mxCell id="68" value="&lt;font style=&quot;font-size: 23px;&quot;&gt;Message Consumer&lt;/font&gt;" style="text;html=1;align=center;verticalAlign=middle;resizable=0;points=[];autosize=1;fontSize=23;labelBackgroundColor=#4D4D4D;spacingTop=0;spacing=0;" vertex="1" parent="1">
                    <mxGeometry x="735" y="1115" width="220" height="30" as="geometry"/>
                </mxCell>
                <mxCell id="87" style="edgeStyle=orthogonalEdgeStyle;shape=flexArrow;rounded=0;jumpSize=5;orthogonalLoop=1;jettySize=auto;html=1;strokeColor=#1A1A1A;strokeWidth=7;fillColor=none;fontSize=23;fontColor=#1A1A1A;entryX=0.5;entryY=1;entryDx=0;entryDy=0;entryPerimeter=0;" edge="1" parent="1" source="69" target="85">
                    <mxGeometry relative="1" as="geometry">
                        <mxPoint x="-1140" y="1110" as="targetPoint"/>
                        <Array as="points">
                            <mxPoint x="-355" y="1130"/>
                            <mxPoint x="-1525" y="1130"/>
                        </Array>
                    </mxGeometry>
                </mxCell>
                <mxCell id="69" value="&lt;font style=&quot;font-size: 31px&quot;&gt;DB&lt;br&gt;(Mongo DB)&lt;/font&gt;" style="shape=cylinder3;whiteSpace=wrap;html=1;boundedLbl=1;backgroundOutline=1;size=15;fillColor=#008a00;strokeColor=#005700;fontColor=#ffffff;shadow=1;strokeWidth=5;" vertex="1" parent="1">
                    <mxGeometry x="-460" y="700" width="210" height="300" as="geometry"/>
                </mxCell>
                <mxCell id="71" value="&lt;span style=&quot;color: rgb(240 , 240 , 240) ; font-family: &amp;#34;helvetica&amp;#34; ; font-size: 20px ; font-style: normal ; font-weight: 400 ; letter-spacing: normal ; text-align: center ; text-indent: 0px ; text-transform: none ; word-spacing: 0px ; background-color: rgb(42 , 42 , 42) ; display: inline ; float: none&quot;&gt;Persist Message&lt;/span&gt;" style="text;whiteSpace=wrap;html=1;" vertex="1" parent="1">
                    <mxGeometry x="-190" y="820" width="170" height="30" as="geometry"/>
                </mxCell>
                <mxCell id="75" value="&lt;span style=&quot;color: rgb(240 , 240 , 240) ; font-family: &amp;#34;helvetica&amp;#34; ; font-size: 20px ; font-style: normal ; font-weight: 400 ; letter-spacing: normal ; text-align: center ; text-indent: 0px ; text-transform: none ; word-spacing: 0px ; background-color: rgb(42 , 42 , 42) ; display: inline ; float: none&quot;&gt;Broadcast Message&amp;nbsp;&lt;/span&gt;" style="text;whiteSpace=wrap;html=1;" vertex="1" parent="1">
                    <mxGeometry x="675" y="620" width="255" height="30" as="geometry"/>
                </mxCell>
                <mxCell id="76" value="" style="endArrow=none;html=1;strokeWidth=3;fontSize=23;fontColor=#FFFFFF;fillColor=#60a917;strokeColor=#1A1A1A;" edge="1" parent="1">
                    <mxGeometry width="50" height="50" relative="1" as="geometry">
                        <mxPoint x="-1360" y="180" as="sourcePoint"/>
                        <mxPoint x="2950" y="190" as="targetPoint"/>
                    </mxGeometry>
                </mxCell>
                <mxCell id="77" value="&lt;font color=&quot;#1a1a1a&quot;&gt;&lt;b style=&quot;font-size: 20px&quot;&gt;Client&lt;/b&gt;&lt;br&gt;&lt;span style=&quot;font-size: 20px&quot;&gt;(Mobile, Web App, etc. )&lt;/span&gt;&lt;br&gt;&lt;font style=&quot;font-size: 18px&quot;&gt;Maintains Websocket connections with Chat relay server&lt;br&gt;&lt;ul&gt;&lt;li style=&quot;text-align: left&quot;&gt;&lt;font&gt;Use Auth token for handshake &amp;amp; establish connection&lt;/font&gt;&lt;/li&gt;&lt;li style=&quot;text-align: left&quot;&gt;Once the connection is established, only new messages will be recieved / sent over the connection&lt;/li&gt;&lt;li style=&quot;text-align: left&quot;&gt;Older messages can be fetched through API (DB / S3 cache)&lt;/li&gt;&lt;/ul&gt;&lt;/font&gt;&lt;/font&gt;" style="rounded=1;whiteSpace=wrap;html=1;strokeColor=#82b366;fillColor=#d5e8d4;gradientColor=#97d077;" vertex="1" parent="1">
                    <mxGeometry x="1600" y="-170" width="340" height="330" as="geometry"/>
                </mxCell>
                <mxCell id="81" value="&lt;div style=&quot;text-align: center ; font-size: 23px&quot;&gt;&lt;b&gt;&lt;font style=&quot;font-size: 23px&quot;&gt;Chat Websocket Relay: DUMB&lt;/font&gt;&lt;/b&gt;&lt;/div&gt;&lt;font style=&quot;font-size: 23px&quot;&gt;&lt;ul&gt;&lt;li&gt;&lt;font style=&quot;font-size: 23px&quot;&gt;A dumb service that maintains websocket connections with the client&lt;/font&gt;&lt;/li&gt;&lt;li style=&quot;font-size: 20px&quot;&gt;After authentication, uses gRPC to subscribe to the client's team(s)&lt;/li&gt;&lt;li style=&quot;font-size: 20px&quot;&gt;Publishes the received message from the client, to the message broker&lt;/li&gt;&lt;li style=&quot;font-size: 20px&quot;&gt;Message recieved via Controller Service, is broadcasted to all the connected clients belonging to the intented team&amp;nbsp;&amp;nbsp;&lt;/li&gt;&lt;/ul&gt;&lt;/font&gt;" style="rounded=1;whiteSpace=wrap;html=1;strokeColor=#000000;fillColor=#E6E6E6;fontColor=#000000;align=left;" vertex="1" parent="1">
                    <mxGeometry x="2000" y="250" width="600" height="300" as="geometry"/>
                </mxCell>
                <mxCell id="82" value="&lt;span style=&quot;font-size: 30px&quot;&gt;&lt;font color=&quot;#1a1a1a&quot;&gt;&lt;b&gt;Message Broker&lt;/b&gt;: Kafka&lt;/font&gt;&lt;/span&gt;" style="rounded=1;whiteSpace=wrap;html=1;strokeColor=#6c8ebf;fillColor=#dae8fc;gradientColor=#7ea6e0;" vertex="1" parent="1">
                    <mxGeometry x="1770" y="580" width="380" height="190" as="geometry"/>
                </mxCell>
                <mxCell id="84" value="&lt;div style=&quot;text-align: center ; font-size: 23px&quot;&gt;&lt;b&gt;Chat Controller: (Intelligent)&amp;nbsp;&lt;/b&gt;&lt;/div&gt;&lt;font style=&quot;font-size: 23px&quot;&gt;&lt;ul&gt;&lt;li&gt;Subsribe to Message Broker and ingests all the recieved messages&lt;/li&gt;&lt;li&gt;Ingested message is pushed to DB for persistence, asynchronously&lt;/li&gt;&lt;li&gt;Inform all the connected Chat Relay Services, which have subscribed for the channel, so as to broadcast the message further to connected clients / endpoints&lt;/li&gt;&lt;/ul&gt;&lt;/font&gt;" style="rounded=1;whiteSpace=wrap;html=1;strokeColor=#000000;fillColor=#E6E6E6;fontColor=#000000;align=left;" vertex="1" parent="1">
                    <mxGeometry x="540" y="1160" width="600" height="300" as="geometry"/>
                </mxCell>
                <mxCell id="85" value="&lt;font color=&quot;#1a1a1a&quot; style=&quot;font-size: 31px&quot;&gt;&lt;span&gt;&lt;b&gt;Storage&lt;/b&gt;&lt;br&gt;&lt;/span&gt;( s3 / minio )&lt;/font&gt;" style="shape=cylinder3;whiteSpace=wrap;html=1;boundedLbl=1;backgroundOutline=1;size=15;fillColor=#fff2cc;shadow=1;strokeWidth=5;gradientColor=#ffd966;strokeColor=#1A1A1A;" vertex="1" parent="1">
                    <mxGeometry x="-1630" y="60" width="210" height="300" as="geometry"/>
                </mxCell>
                <mxCell id="86" value="&lt;font style=&quot;font-size: 25px&quot;&gt;&lt;b&gt;Message Caching Engine&lt;/b&gt;&lt;br&gt;&lt;ul&gt;&lt;li style=&quot;text-align: left&quot;&gt;&lt;font style=&quot;font-size: 25px&quot;&gt;Caches messages from DB to Block Storage&lt;/font&gt;&lt;/li&gt;&lt;li style=&quot;text-align: left&quot;&gt;&lt;font style=&quot;font-size: 25px&quot;&gt;Maximum 100 messages in an object&lt;/font&gt;&lt;/li&gt;&lt;li style=&quot;text-align: left&quot;&gt;&lt;font style=&quot;font-size: 25px&quot;&gt;Triggers in a set interval of time&lt;/font&gt;&lt;/li&gt;&lt;li style=&quot;text-align: left&quot;&gt;&lt;font style=&quot;font-size: 25px&quot;&gt;Purges Chat from DB after caching&lt;/font&gt;&lt;/li&gt;&lt;/ul&gt;&lt;/font&gt;" style="rounded=1;whiteSpace=wrap;html=1;strokeColor=#000000;fillColor=#E6E6E6;fontColor=#000000;" vertex="1" parent="1">
                    <mxGeometry x="-990" y="875" width="300" height="510" as="geometry"/>
                </mxCell>
                <mxCell id="88" value="" style="rounded=0;whiteSpace=wrap;html=1;dashed=1;dashPattern=1 2;fillColor=#d0cee2;strokeWidth=3;strokeColor=#1A1A1A;" vertex="1" parent="1">
                    <mxGeometry x="-1340" y="320" width="910" height="100" as="geometry"/>
                </mxCell>
                <mxCell id="89" value="&lt;font style=&quot;font-size: 20px&quot;&gt;REST API&lt;/font&gt;" style="rounded=1;whiteSpace=wrap;html=1;strokeColor=#000000;fillColor=#E6E6E6;fontColor=#000000;" vertex="1" parent="1">
                    <mxGeometry x="-1290" y="340" width="120" height="60" as="geometry"/>
                </mxCell>
                <mxCell id="90" value="&lt;font style=&quot;font-size: 20px&quot;&gt;REST API&lt;/font&gt;" style="rounded=1;whiteSpace=wrap;html=1;strokeColor=#000000;fillColor=#E6E6E6;fontColor=#000000;" vertex="1" parent="1">
                    <mxGeometry x="-600" y="340" width="120" height="60" as="geometry"/>
                </mxCell>
                <mxCell id="91" value="&lt;font style=&quot;font-size: 20px&quot;&gt;REST API&lt;/font&gt;" style="rounded=1;whiteSpace=wrap;html=1;strokeColor=#000000;fillColor=#E6E6E6;fontColor=#000000;" vertex="1" parent="1">
                    <mxGeometry x="-920" y="340" width="120" height="60" as="geometry"/>
                </mxCell>
                <mxCell id="96" value="&lt;font style=&quot;font-size: 30px&quot; color=&quot;#1a1a1a&quot;&gt;Load Balancer&lt;/font&gt;" style="rounded=0;whiteSpace=wrap;html=1;gradientColor=#ffd966;fillColor=#fff2cc;strokeColor=#d6b656;" vertex="1" parent="1">
                    <mxGeometry x="-1350" y="220" width="1090" height="60" as="geometry"/>
                </mxCell>
                <mxCell id="100" value="&lt;font style=&quot;font-size: 20px&quot;&gt;&lt;b&gt;REST API&lt;/b&gt;&lt;br&gt;&lt;ul&gt;&lt;li style=&quot;text-align: left&quot;&gt;&lt;font style=&quot;font-size: 20px&quot;&gt;Get chat history / previous messages&lt;/font&gt;&amp;nbsp;&lt;/li&gt;&lt;li style=&quot;text-align: left&quot;&gt;Generate pre-signed S3 URL for media for uploading / downloading media content&lt;/li&gt;&lt;li style=&quot;text-align: left&quot;&gt;Create, Get, Update Teams&lt;/li&gt;&lt;/ul&gt;&lt;/font&gt;" style="rounded=1;whiteSpace=wrap;html=1;strokeColor=#000000;fillColor=#E6E6E6;fontColor=#000000;" vertex="1" parent="1">
                    <mxGeometry x="-410" y="320" width="290" height="290" as="geometry"/>
                </mxCell>
                <mxCell id="103" value="&lt;font style=&quot;font-size: 20px&quot;&gt;Client communicates directly with Block Storage to upload / retrieve media content&lt;/font&gt;" style="rounded=1;whiteSpace=wrap;html=1;strokeColor=#000000;fillColor=#E6E6E6;fontColor=#000000;" vertex="1" parent="1">
                    <mxGeometry x="-1710" y="-170" width="420" height="120" as="geometry"/>
                </mxCell>
                <mxCell id="104" value="&lt;div style=&quot;text-align: center&quot;&gt;&lt;span style=&quot;font-size: 20px&quot;&gt;&lt;b&gt;Storage&lt;/b&gt;&lt;/span&gt;&lt;/div&gt;&lt;font style=&quot;font-size: 20px&quot;&gt;&lt;ol&gt;&lt;li&gt;&lt;font style=&quot;font-size: 20px&quot;&gt;Media content&lt;/font&gt;&lt;/li&gt;&lt;li&gt;&lt;font style=&quot;font-size: 20px&quot;&gt;Archived messages&lt;/font&gt;&lt;/li&gt;&lt;li&gt;&lt;font style=&quot;font-size: 20px&quot;&gt;Configurations&lt;/font&gt;&lt;/li&gt;&lt;/ol&gt;&lt;/font&gt;" style="rounded=1;whiteSpace=wrap;html=1;strokeColor=#000000;fillColor=#E6E6E6;fontColor=#000000;align=left;" vertex="1" parent="1">
                    <mxGeometry x="-1930" y="110" width="240" height="170" as="geometry"/>
                </mxCell>
            </root>
        </mxGraphModel>
    </diagram>
</mxfile>